Coordinates
version=1
nRows=22
nColumns=24
inDegrees=yes

Units are S.I. units (second, meters, Newtons, ...)
Angles are in degrees.

endheader
time	pelvis_tilt	pelvis_list	pelvis_rotation	pelvis_tx	pelvis_ty	pelvis_tz	hip_flexion_r	hip_adduction_r	hip_rotation_r	knee_angle_r	ankle_angle_r	subtalar_angle_r	mtp_angle_r	hip_flexion_l	hip_adduction_l	hip_rotation_l	knee_angle_l	ankle_angle_l	subtalar_angle_l	mtp_angle_l	lumbar_extension	lumbar_bending	lumbar_rotation
      6.97000000	     66.14365243	      5.45554686	     -1.67255709	      0.56091210	      1.06128406	     -0.30633561	      0.79959158	    -14.01368242	      5.01844744	    -61.39139765	    -17.68412299	     -2.42449205	      0.00000000	      0.50769715	     -4.20820422	     -0.51814859	    -47.56389420	     -6.73482829	     23.78903542	      0.00000000	      0.00000000	      0.00000000	      0.00000000
      6.98000000	     66.15811112	      5.46255839	     -1.67616220	      0.56087895	      1.06128653	     -0.30634211	      0.78083190	    -14.02331097	      5.02664795	    -61.38391308	    -17.66768458	     -2.42745669	      0.00000000	      0.48749818	     -4.12798409	     -0.47607164	    -46.85349841	     -6.57573802	     23.74820090	      0.00000000	      0.00000000	      0.00000000	      0.00000000
      6.99000000	     66.17475448	      5.46909902	     -1.68009769	      0.56084960	      1.06131485	     -0.30633503	      0.76400586	    -14.03341799	      5.03483311	    -61.37603205	    -17.65456136	     -2.43266880	      0.00000000	      0.46952519	     -4.05473534	     -0.42587772	    -46.20722663	     -6.41287053	     23.71231424	      0.00000000	      0.00000000	      0.00000000	      0.00000000
      7.00000000	     66.19154318	      5.47522799	     -1.68437967	      0.56081857	      1.06134890	     -0.30633679	      0.74993157	    -14.04402377	      5.04257244	    -61.36794330	    -17.64649176	     -2.44016760	      0.00000000	      0.45085432	     -3.98926991	     -0.36788335	    -45.62595779	     -6.25058888	     23.67890225	      0.00000000	      0.00000000	      0.00000000	      0.00000000
      7.01000000	     66.20629752	      5.48059240	     -1.68798775	      0.56078779	      1.06135741	     -0.30635036	      0.73840787	    -14.05443060	      5.04937305	    -61.36006856	    -17.64405331	     -2.44961647	      0.00000000	      0.43052434	     -3.93127605	     -0.30411439	    -45.11050546	     -6.09416639	     23.64771452	      0.00000000	      0.00000000	      0.00000000	      0.00000000
      7.02000000	     66.21869783	      5.48494525	     -1.68989362	      0.56076238	      1.06134361	     -0.30635855	      0.72860758	    -14.06375121	      5.05487518	    -61.35253158	    -17.64667272	     -2.46037040	      0.00000000	      0.41082062	     -3.88008047	     -0.23769993	    -44.66193364	     -5.94914675	     23.62048820	      0.00000000	      0.00000000	      0.00000000	      0.00000000
      7.03000000	     66.22947822	      5.48882991	     -1.69015059	      0.56073792	      1.06133371	     -0.30635201	      0.71957249	    -14.07157325	      5.05912583	    -61.34512127	    -17.65283319	     -2.47163049	      0.00000000	      0.39544657	     -3.83604838	     -0.17119968	    -44.28188628	     -5.82041130	     23.60018566	      0.00000000	      0.00000000	      0.00000000	      0.00000000
      7.04000000	     66.23903190	      5.49311131	     -1.68985581	      0.56070970	      1.06134072	     -0.30633994	      0.71088622	    -14.07807055	      5.06265706	    -61.33760446	    -17.66042063	     -2.48262571	      0.00000000	      0.38685654	     -3.80064349	     -0.10558793	    -43.97213395	     -5.71092446	     23.58983164	      0.00000000	      0.00000000	      0.00000000	      0.00000000
      7.05000000	     66.24688335	      5.49780214	     -1.69013417	      0.56067945	      1.06135796	     -0.30633229	      0.70325472	    -14.08349950	      5.06621672	    -61.32999609	    -17.66719516	     -2.49275074	      0.00000000	      0.38471569	     -3.77506700	     -0.04060351	    -43.73386017	     -5.62080856	     23.59119253	      0.00000000	      0.00000000	      0.00000000	      0.00000000
      7.06000000	     66.25196218	      5.50171269	     -1.69125839	      0.56065168	      1.06137283	     -0.30632469	      0.69831162	    -14.08768691	      5.07031754	    -61.32264031	    -17.67132452	     -2.50163396	      0.00000000	      0.38623097	     -3.75923673	      0.02406640	    -43.56729783	     -5.54746649	     23.60372906	      0.00000000	      0.00000000	      0.00000000	      0.00000000
      7.07000000	     66.25345511	      5.50355029	     -1.69283474	      0.56063299	      1.06137716	     -0.30630703	      0.69753805	    -14.09014021	      5.07498608	    -61.31611752	    -17.67186031	     -2.50913716	      0.00000000	      0.38820398	     -3.75238588	      0.08785431	    -43.47176134	     -5.48688355	     23.62429856	      0.00000000	      0.00000000	      0.00000000	      0.00000000
      7.08000000	     66.25138218	      5.50312126	     -1.69457310	      0.56062745	      1.06136982	     -0.30627806	      0.70110489	    -14.09065924	      5.07988877	    -61.31101859	    -17.66902473	     -2.51528912	      0.00000000	      0.38906771	     -3.75416977	      0.14910285	    -43.44625282	     -5.43551538	     23.64783955	      0.00000000	      0.00000000	      0.00000000	      0.00000000
      7.09000000	     66.24659042	      5.50134854	     -1.69655932	      0.56063187	      1.06135592	     -0.30624841	      0.70769176	    -14.08962331	      5.08457201	    -61.30758907	    -17.66417897	     -2.52018013	      0.00000000	      0.38939307	     -3.76463050	      0.20532463	    -43.49038749	     -5.39177364	     23.66886312	      0.00000000	      0.00000000	      0.00000000	      0.00000000
      7.10000000	     66.24041665	      5.49929270	     -1.69882964	      0.56063902	      1.06134446	     -0.30622886	      0.71540986	    -14.08762154	      5.08855185	    -61.30543038	    -17.65940987	     -2.52389422	      0.00000000	      0.39088172	     -3.78315368	      0.25379177	    -43.60488633	     -5.35638767	     23.68328195	      0.00000000	      0.00000000	      0.00000000	      0.00000000
      7.11000000	     66.23407851	      5.49725588	     -1.70094750	      0.56064326	      1.06134112	     -0.30621467	      0.72288583	    -14.08501640	      5.09135791	    -61.30362315	    -17.65683474	     -2.52654401	      0.00000000	      0.39485862	     -3.80799109	      0.29258315	    -43.79110715	     -5.33159376	     23.68998942	      0.00000000	      0.00000000	      0.00000000	      0.00000000
      7.12000000	     66.22816560	      5.49498630	     -1.70229291	      0.56064517	      1.06134119	     -0.30619049	      0.72960429	    -14.08194853	      5.09269571	    -61.30134190	    -17.65787503	     -2.52837408	      0.00000000	      0.40155079	     -3.83741881	      0.32191435	    -44.04970149	     -5.31967614	     23.69162880	      0.00000000	      0.00000000	      0.00000000	      0.00000000
      7.13000000	     66.22263012	      5.49261597	     -1.70282681	      0.56065138	      1.06133489	     -0.30615717	      0.73553049	    -14.07856003	      5.09261479	    -61.29851147	    -17.66277433	     -2.52982509	      0.00000000	      0.41053466	     -3.87140822	      0.34484103	    -44.37928324	     -5.32156115	     23.69419538	      0.00000000	      0.00000000	      0.00000000	      0.00000000
      7.14000000	     66.21704086	      5.49057411	     -1.70312014	      0.56066550	      1.06132229	     -0.30613358	      0.74088194	    -14.07496568	      5.09145504	    -61.29588434	    -17.67053812	     -2.53148431	      0.00000000	      0.42127445	     -3.91137321	      0.36625699	    -44.77634373	     -5.33605044	     23.70549047	      0.00000000	      0.00000000	      0.00000000	      0.00000000
      7.15000000	     66.21070478	      5.48845706	     -1.70348179	      0.56068253	      1.06131483	     -0.30612400	      0.74633638	    -14.07098170	      5.08959042	    -61.29454104	    -17.67932175	     -2.53393049	      0.00000000	      0.43307535	     -3.95817672	      0.39059541	    -45.23649987	     -5.36000293	     23.73288610	      0.00000000	      0.00000000	      0.00000000	      0.00000000
      7.16000000	     66.20283674	      5.48520465	     -1.70356900	      0.56069892	      1.06131801	     -0.30611360	      0.75306606	    -14.06607181	      5.08723969	    -61.29535192	    -17.68712403	     -2.53753710	      0.00000000	      0.44521064	     -4.01150658	      0.42013537	    -45.75583699	     -5.38933866	     23.78113828	      0.00000000	      0.00000000	      0.00000000	      0.00000000
      7.17000000	     66.19282310	      5.48049108	     -1.70286650	      0.56071876	      1.06131855	     -0.30609658	      0.76222742	    -14.05968861	      5.08447960	    -61.29873029	    -17.69249057	     -2.54231741	      0.00000000	      0.45762095	     -4.07098468	      0.45474957	    -46.33153352	     -5.42040448	     23.85097610	      0.00000000	      0.00000000	      0.00000000	      0.00000000
      7.18000000	     66.18049095	      5.47501161	     -1.70116527	      0.56074534	      1.06129971	     -0.30608183	      0.77425451	    -14.05161622	      5.08133313	    -61.30465254	    -17.69490823	     -2.54788412	      0.00000000	      0.47168848	     -4.13652626	      0.49242664	    -46.96179600	     -5.45119073	     23.93889928	      0.00000000	      0.00000000	      0.00000000	      0.00000000
